<svg width="769" height="769" viewBox="0 0 769 769" fill="none" xmlns="http://www.w3.org/2000/svg">
<g filter="url(#filter0_i_300_6)">
<path fill-rule="evenodd" clip-rule="evenodd" d="M561.923 282.398C650.313 305.29 716.347 396.261 716.347 505C716.346 627.759 632.188 727.868 526.711 732.948L526.952 733.157L34.8895 733.157L218.827 480.57C130.449 457.966 64.4276 368.19 64.4276 260.877C64.428 138.262 150.62 38.539 257.873 35.7564L257.826 35.6939L733.96 35.6939L647.941 159.046L561.923 282.398ZM404.383 195.027C401.097 178.952 378.128 178.952 374.843 195.027L347.71 327.774C346.5 333.691 341.876 338.315 335.959 339.525L203.212 366.658C187.136 369.943 187.136 392.912 203.212 396.198L335.959 423.331C341.876 424.54 346.5 429.164 347.71 435.082L374.843 567.829C378.128 583.904 401.097 583.904 404.383 567.829L431.515 435.082C432.724 429.164 437.349 424.54 443.266 423.331L576.013 396.198C592.089 392.912 592.088 369.944 576.014 366.658L443.266 339.525C437.349 338.315 432.724 333.691 431.515 327.774L404.383 195.027Z" fill="#D9D9D9"/>
<path fill-rule="evenodd" clip-rule="evenodd" d="M561.923 282.398C650.313 305.29 716.347 396.261 716.347 505C716.346 627.759 632.188 727.868 526.711 732.948L526.952 733.157L34.8895 733.157L218.827 480.57C130.449 457.966 64.4276 368.19 64.4276 260.877C64.428 138.262 150.62 38.539 257.873 35.7564L257.826 35.6939L733.96 35.6939L647.941 159.046L561.923 282.398ZM404.383 195.027C401.097 178.952 378.128 178.952 374.843 195.027L347.71 327.774C346.5 333.691 341.876 338.315 335.959 339.525L203.212 366.658C187.136 369.943 187.136 392.912 203.212 396.198L335.959 423.331C341.876 424.54 346.5 429.164 347.71 435.082L374.843 567.829C378.128 583.904 401.097 583.904 404.383 567.829L431.515 435.082C432.724 429.164 437.349 424.54 443.266 423.331L576.013 396.198C592.089 392.912 592.088 369.944 576.014 366.658L443.266 339.525C437.349 338.315 432.724 333.691 431.515 327.774L404.383 195.027Z" fill="url(#paint0_linear_300_6)"/>
<mask id="mask0_300_6" style="mask-type:alpha" maskUnits="userSpaceOnUse" x="63" y="34" width="673" height="616">
<path d="M63.928 260.878C63.9285 138.419 149.764 38.6486 256.894 35.2857L256.826 35.1947L257.826 35.1947L733.96 35.1946L734.918 35.1946L734.37 35.9806L562.741 282.098C651.04 305.352 716.847 396.358 716.847 505C716.846 575.363 695.469 615.792 660.792 635.052C626.162 654.285 578.436 652.306 525.964 638.276C421.028 610.218 296.63 533.833 218.618 481.032C130.028 458.327 63.928 368.348 63.928 260.878ZM403.893 195.127C400.716 179.585 378.51 179.586 375.333 195.128L348.201 327.875C346.951 333.988 342.173 338.766 336.059 340.016L203.312 367.148C187.77 370.325 187.77 392.532 203.312 395.708L336.059 422.841C342.173 424.09 346.951 428.869 348.2 434.982L375.333 567.729C378.51 583.271 400.716 583.271 403.893 567.729L431.025 434.982C432.275 428.868 437.053 424.091 443.167 422.841L575.914 395.708C591.456 392.531 591.455 370.325 575.914 367.148L443.166 340.015C437.053 338.765 432.274 333.988 431.025 327.875L403.893 195.127Z" fill="#D9D9D9"/>
<path d="M63.928 260.878C63.9285 138.419 149.764 38.6486 256.894 35.2857L256.826 35.1947L257.826 35.1947L733.96 35.1946L734.918 35.1946L734.37 35.9806L562.741 282.098C651.04 305.352 716.847 396.358 716.847 505C716.846 575.363 695.469 615.792 660.792 635.052C626.162 654.285 578.436 652.306 525.964 638.276C421.028 610.218 296.63 533.833 218.618 481.032C130.028 458.327 63.928 368.348 63.928 260.878ZM403.893 195.127C400.716 179.585 378.51 179.586 375.333 195.128L348.201 327.875C346.951 333.988 342.173 338.766 336.059 340.016L203.312 367.148C187.77 370.325 187.77 392.532 203.312 395.708L336.059 422.841C342.173 424.09 346.951 428.869 348.2 434.982L375.333 567.729C378.51 583.271 400.716 583.271 403.893 567.729L431.025 434.982C432.275 428.868 437.053 424.091 443.167 422.841L575.914 395.708C591.456 392.531 591.455 370.325 575.914 367.148L443.166 340.015C437.053 338.765 432.274 333.988 431.025 327.875L403.893 195.127Z" fill="url(#paint1_linear_300_6)"/>
<path d="M63.928 260.878C63.9285 138.419 149.764 38.6486 256.894 35.2857L256.826 35.1947L257.826 35.1947L733.96 35.1946L734.918 35.1946L734.37 35.9806L562.741 282.098C651.04 305.352 716.847 396.358 716.847 505C716.846 575.363 695.469 615.792 660.792 635.052C626.162 654.285 578.436 652.306 525.964 638.276C421.028 610.218 296.63 533.833 218.618 481.032C130.028 458.327 63.928 368.348 63.928 260.878ZM403.893 195.127C400.716 179.585 378.51 179.586 375.333 195.128L348.201 327.875C346.951 333.988 342.173 338.766 336.059 340.016L203.312 367.148C187.77 370.325 187.77 392.532 203.312 395.708L336.059 422.841C342.173 424.09 346.951 428.869 348.2 434.982L375.333 567.729C378.51 583.271 400.716 583.271 403.893 567.729L431.025 434.982C432.275 428.868 437.053 424.091 443.167 422.841L575.914 395.708C591.456 392.531 591.455 370.325 575.914 367.148L443.166 340.015C437.053 338.765 432.274 333.988 431.025 327.875L403.893 195.127Z" stroke="url(#paint2_linear_300_6)"/>
</mask>
<g mask="url(#mask0_300_6)">
<g filter="url(#filter1_iii_300_6)">
<path d="M218.828 480.57C130.449 457.966 64.4281 368.19 64.4281 260.878C64.4285 138.263 150.621 38.5395 257.873 35.7568L257.827 35.6943L733.96 35.6943L748.776 124.243L748.776 831.471L-29.6051 778.945L218.828 480.57Z" fill="#D9D9D9"/>
<path d="M218.828 480.57C130.449 457.966 64.4281 368.19 64.4281 260.878C64.4285 138.263 150.621 38.5395 257.873 35.7568L257.827 35.6943L733.96 35.6943L748.776 124.243L748.776 831.471L-29.6051 778.945L218.828 480.57Z" fill="url(#paint3_linear_300_6)"/>
</g>
</g>
<mask id="mask1_300_6" style="mask-type:alpha" maskUnits="userSpaceOnUse" x="-105" y="165" width="926" height="682">
<path d="M367.464 165.768L443.394 185.754L443.626 185.816L443.723 186.035L476.813 260.452L562.045 281.914L562.048 281.915C584.248 287.664 611.463 303.821 639.773 326.473C668.094 349.133 697.553 378.326 724.245 410.199C750.936 442.072 774.87 476.637 792.133 510.044C809.392 543.442 820.006 575.726 820.006 603.027C820.006 673.527 779.584 726.53 716.635 764.703C653.697 802.87 568.188 826.253 477.847 837.542C387.5 848.833 292.277 848.034 209.881 837.809C127.557 827.592 57.9629 807.958 18.8442 781.512C-26.4709 769.915 -57.6183 756.577 -77.2211 742.083C-96.8486 727.571 -104.951 711.857 -104.024 695.558C-103.098 679.299 -93.1927 662.597 -77.1338 646.069C-61.0655 629.531 -38.7786 613.107 -12.9636 597.404C38.6688 565.996 104.493 537.423 163.128 516.554C192.447 506.119 219.976 497.607 243.042 491.629C265.236 485.878 283.332 482.464 294.92 481.951L167.147 376.131L166.734 375.789L167.104 375.401L366.976 165.906L367.179 165.693L367.464 165.768ZM403.893 195.127C400.716 179.585 378.51 179.586 375.333 195.128L348.2 327.875C346.95 333.988 342.173 338.766 336.059 340.016L203.312 367.148C187.77 370.325 187.77 392.532 203.312 395.708L336.06 422.842C342.173 424.091 346.951 428.869 348.2 434.982L375.333 567.729C378.51 583.271 400.716 583.271 403.893 567.729L431.025 434.982C432.274 428.869 437.053 424.091 443.167 422.841L575.914 395.708C591.456 392.531 591.455 370.325 575.914 367.148L443.167 340.016C437.053 338.766 432.274 333.988 431.025 327.875L403.893 195.127Z" fill="#D9D9D9"/>
<path d="M367.464 165.768L443.394 185.754L443.626 185.816L443.723 186.035L476.813 260.452L562.045 281.914L562.048 281.915C584.248 287.664 611.463 303.821 639.773 326.473C668.094 349.133 697.553 378.326 724.245 410.199C750.936 442.072 774.87 476.637 792.133 510.044C809.392 543.442 820.006 575.726 820.006 603.027C820.006 673.527 779.584 726.53 716.635 764.703C653.697 802.87 568.188 826.253 477.847 837.542C387.5 848.833 292.277 848.034 209.881 837.809C127.557 827.592 57.9629 807.958 18.8442 781.512C-26.4709 769.915 -57.6183 756.577 -77.2211 742.083C-96.8486 727.571 -104.951 711.857 -104.024 695.558C-103.098 679.299 -93.1927 662.597 -77.1338 646.069C-61.0655 629.531 -38.7786 613.107 -12.9636 597.404C38.6688 565.996 104.493 537.423 163.128 516.554C192.447 506.119 219.976 497.607 243.042 491.629C265.236 485.878 283.332 482.464 294.92 481.951L167.147 376.131L166.734 375.789L167.104 375.401L366.976 165.906L367.179 165.693L367.464 165.768ZM403.893 195.127C400.716 179.585 378.51 179.586 375.333 195.128L348.2 327.875C346.95 333.988 342.173 338.766 336.059 340.016L203.312 367.148C187.77 370.325 187.77 392.532 203.312 395.708L336.06 422.842C342.173 424.091 346.951 428.869 348.2 434.982L375.333 567.729C378.51 583.271 400.716 583.271 403.893 567.729L431.025 434.982C432.274 428.869 437.053 424.091 443.167 422.841L575.914 395.708C591.456 392.531 591.455 370.325 575.914 367.148L443.167 340.016C437.053 338.766 432.274 333.988 431.025 327.875L403.893 195.127Z" fill="url(#paint4_linear_300_6)"/>
<path d="M367.464 165.768L443.394 185.754L443.626 185.816L443.723 186.035L476.813 260.452L562.045 281.914L562.048 281.915C584.248 287.664 611.463 303.821 639.773 326.473C668.094 349.133 697.553 378.326 724.245 410.199C750.936 442.072 774.87 476.637 792.133 510.044C809.392 543.442 820.006 575.726 820.006 603.027C820.006 673.527 779.584 726.53 716.635 764.703C653.697 802.87 568.188 826.253 477.847 837.542C387.5 848.833 292.277 848.034 209.881 837.809C127.557 827.592 57.9629 807.958 18.8442 781.512C-26.4709 769.915 -57.6183 756.577 -77.2211 742.083C-96.8486 727.571 -104.951 711.857 -104.024 695.558C-103.098 679.299 -93.1927 662.597 -77.1338 646.069C-61.0655 629.531 -38.7786 613.107 -12.9636 597.404C38.6688 565.996 104.493 537.423 163.128 516.554C192.447 506.119 219.976 497.607 243.042 491.629C265.236 485.878 283.332 482.464 294.92 481.951L167.147 376.131L166.734 375.789L167.104 375.401L366.976 165.906L367.179 165.693L367.464 165.768ZM403.893 195.127C400.716 179.585 378.51 179.586 375.333 195.128L348.2 327.875C346.95 333.988 342.173 338.766 336.059 340.016L203.312 367.148C187.77 370.325 187.77 392.532 203.312 395.708L336.06 422.842C342.173 424.091 346.951 428.869 348.2 434.982L375.333 567.729C378.51 583.271 400.716 583.271 403.893 567.729L431.025 434.982C432.274 428.869 437.053 424.091 443.167 422.841L575.914 395.708C591.456 392.531 591.455 370.325 575.914 367.148L443.167 340.016C437.053 338.766 432.274 333.988 431.025 327.875L403.893 195.127Z" stroke="url(#paint5_linear_300_6)"/>
</mask>
<g mask="url(#mask1_300_6)">
<g filter="url(#filter2_iii_300_6)">
<path fill-rule="evenodd" clip-rule="evenodd" d="M561.923 282.398C650.313 305.291 716.347 396.261 716.347 505C716.346 627.759 632.188 727.869 526.711 732.948L526.952 733.157L34.8895 733.157L218.827 480.57C130.449 457.966 64.4276 368.19 64.4276 260.878C64.428 138.263 150.62 38.5395 257.873 35.7569L257.826 35.6944L733.96 35.6944L647.941 159.046L561.923 282.398Z" fill="#D9D9D9"/>
<path fill-rule="evenodd" clip-rule="evenodd" d="M561.923 282.398C650.313 305.291 716.347 396.261 716.347 505C716.346 627.759 632.188 727.869 526.711 732.948L526.952 733.157L34.8895 733.157L218.827 480.57C130.449 457.966 64.4276 368.19 64.4276 260.878C64.428 138.263 150.62 38.5395 257.873 35.7569L257.826 35.6944L733.96 35.6944L647.941 159.046L561.923 282.398Z" fill="url(#paint6_linear_300_6)"/>
</g>
</g>
</g>
<defs>
<filter id="filter0_i_300_6" x="0" y="0" width="768.848" height="772.847" filterUnits="userSpaceOnUse" color-interpolation-filters="sRGB">
<feFlood flood-opacity="0" result="BackgroundImageFix"/>
<feBlend mode="normal" in="SourceGraphic" in2="BackgroundImageFix" result="shape"/>
<feColorMatrix in="SourceAlpha" type="matrix" values="0 0 0 0 0 0 0 0 0 0 0 0 0 0 0 0 0 0 127 0" result="hardAlpha"/>
<feOffset dy="4"/>
<feGaussianBlur stdDeviation="2"/>
<feComposite in2="hardAlpha" operator="arithmetic" k2="-1" k3="1"/>
<feColorMatrix type="matrix" values="0 0 0 0 1 0 0 0 0 1 0 0 0 0 1 0 0 0 0.25 0"/>
<feBlend mode="normal" in2="shape" result="effect1_innerShadow_300_6"/>
</filter>
<filter id="filter1_iii_300_6" x="-29.6055" y="35.6943" width="785.381" height="808.777" filterUnits="userSpaceOnUse" color-interpolation-filters="sRGB">
<feFlood flood-opacity="0" result="BackgroundImageFix"/>
<feBlend mode="normal" in="SourceGraphic" in2="BackgroundImageFix" result="shape"/>
<feColorMatrix in="SourceAlpha" type="matrix" values="0 0 0 0 0 0 0 0 0 0 0 0 0 0 0 0 0 0 127 0" result="hardAlpha"/>
<feOffset dx="7" dy="13"/>
<feGaussianBlur stdDeviation="15.7"/>
<feComposite in2="hardAlpha" operator="arithmetic" k2="-1" k3="1"/>
<feColorMatrix type="matrix" values="0 0 0 0 0 0 0 0 0 0.105882 0 0 0 0 0.282353 0 0 0 0.09 0"/>
<feBlend mode="normal" in2="shape" result="effect1_innerShadow_300_6"/>
<feColorMatrix in="SourceAlpha" type="matrix" values="0 0 0 0 0 0 0 0 0 0 0 0 0 0 0 0 0 0 127 0" result="hardAlpha"/>
<feOffset dx="40" dy="25"/>
<feComposite in2="hardAlpha" operator="arithmetic" k2="-1" k3="1"/>
<feColorMatrix type="matrix" values="0 0 0 0 0 0 0 0 0 0 0 0 0 0 0 0 0 0 0.25 0"/>
<feBlend mode="overlay" in2="effect1_innerShadow_300_6" result="effect2_innerShadow_300_6"/>
<feColorMatrix in="SourceAlpha" type="matrix" values="0 0 0 0 0 0 0 0 0 0 0 0 0 0 0 0 0 0 127 0" result="hardAlpha"/>
<feOffset dx="80" dy="50"/>
<feComposite in2="hardAlpha" operator="arithmetic" k2="-1" k3="1"/>
<feColorMatrix type="matrix" values="0 0 0 0 0 0 0 0 0 0 0 0 0 0 0 0 0 0 0.25 0"/>
<feBlend mode="overlay" in2="effect2_innerShadow_300_6" result="effect3_innerShadow_300_6"/>
</filter>
<filter id="filter2_iii_300_6" x="27.8887" y="22.6943" width="706.07" height="710.463" filterUnits="userSpaceOnUse" color-interpolation-filters="sRGB">
<feFlood flood-opacity="0" result="BackgroundImageFix"/>
<feBlend mode="normal" in="SourceGraphic" in2="BackgroundImageFix" result="shape"/>
<feColorMatrix in="SourceAlpha" type="matrix" values="0 0 0 0 0 0 0 0 0 0 0 0 0 0 0 0 0 0 127 0" result="hardAlpha"/>
<feOffset dx="-7" dy="-13"/>
<feGaussianBlur stdDeviation="15.7"/>
<feComposite in2="hardAlpha" operator="arithmetic" k2="-1" k3="1"/>
<feColorMatrix type="matrix" values="0 0 0 0 0 0 0 0 0 0.105882 0 0 0 0 0.282353 0 0 0 0.09 0"/>
<feBlend mode="normal" in2="shape" result="effect1_innerShadow_300_6"/>
<feColorMatrix in="SourceAlpha" type="matrix" values="0 0 0 0 0 0 0 0 0 0 0 0 0 0 0 0 0 0 127 0" result="hardAlpha"/>
<feOffset dx="-40" dy="-25"/>
<feComposite in2="hardAlpha" operator="arithmetic" k2="-1" k3="1"/>
<feColorMatrix type="matrix" values="0 0 0 0 0 0 0 0 0 0 0 0 0 0 0 0 0 0 0.25 0"/>
<feBlend mode="overlay" in2="effect1_innerShadow_300_6" result="effect2_innerShadow_300_6"/>
<feColorMatrix in="SourceAlpha" type="matrix" values="0 0 0 0 0 0 0 0 0 0 0 0 0 0 0 0 0 0 127 0" result="hardAlpha"/>
<feOffset dx="-80" dy="-50"/>
<feComposite in2="hardAlpha" operator="arithmetic" k2="-1" k3="1"/>
<feColorMatrix type="matrix" values="0 0 0 0 0 0 0 0 0 0 0 0 0 0 0 0 0 0 0.25 0"/>
<feBlend mode="overlay" in2="effect2_innerShadow_300_6" result="effect3_innerShadow_300_6"/>
</filter>
<linearGradient id="paint0_linear_300_6" x1="384.427" y1="39.345" x2="384.427" y2="733.156" gradientUnits="userSpaceOnUse">
<stop stop-color="#018ABE"/>
<stop offset="1" stop-color="#D6E7EE"/>
</linearGradient>
<linearGradient id="paint1_linear_300_6" x1="384.427" y1="39.3454" x2="384.427" y2="733.156" gradientUnits="userSpaceOnUse">
<stop stop-color="#018ABE"/>
<stop offset="1" stop-color="#D6E7EE"/>
</linearGradient>
<linearGradient id="paint2_linear_300_6" x1="287.518" y1="22.7669" x2="482.109" y2="748.989" gradientUnits="userSpaceOnUse">
<stop stop-color="white"/>
<stop offset="1" stop-color="#999999" stop-opacity="0"/>
</linearGradient>
<linearGradient id="paint3_linear_300_6" x1="384.427" y1="39.3455" x2="384.427" y2="733.156" gradientUnits="userSpaceOnUse">
<stop stop-color="#018ABE"/>
<stop offset="1" stop-color="#D6E7EE"/>
</linearGradient>
<linearGradient id="paint4_linear_300_6" x1="384.428" y1="39.345" x2="384.428" y2="733.156" gradientUnits="userSpaceOnUse">
<stop stop-color="#018ABE"/>
<stop offset="1" stop-color="#D6E7EE"/>
</linearGradient>
<linearGradient id="paint5_linear_300_6" x1="287.519" y1="22.7663" x2="482.109" y2="748.989" gradientUnits="userSpaceOnUse">
<stop stop-color="white"/>
<stop offset="1" stop-color="#999999" stop-opacity="0"/>
</linearGradient>
<linearGradient id="paint6_linear_300_6" x1="384.427" y1="39.3454" x2="384.427" y2="733.156" gradientUnits="userSpaceOnUse">
<stop stop-color="#018ABE"/>
<stop offset="1" stop-color="#D6E7EE"/>
</linearGradient>
</defs>
</svg>
